<svg xmlns="http://www.w3.org/2000/svg" width="60" height="23" viewBox="0 0 60 23">
  <path id="Logo" d="M10.08,23H.257V21.542l2.25-.583V3.409H0V1.894L6.009.028H7.575v2.1C10.4.408,11.35.116,12.786.116c3.349,0,5.781,3.152,5.781,7.492,0,5.118-3.32,8.425-8.457,8.425a23.469,23.469,0,0,1-2.562-.146l.028,5.071,2.506.583V23h0ZM7.716,3.572,7.6,3.586,7.575,14.107c.4.03.6.03.855.03,3.129,0,4.783-2.005,4.783-5.8,0-3.177-1.376-4.928-3.874-4.928A12.616,12.616,0,0,0,7.716,3.572ZM47.327,14.108a8.063,8.063,0,0,1-2.22-5.771C45.106,3.352,48.695,0,53.962,0c3.5,0,5.895,1.633,5.895,4.024a2.573,2.573,0,0,1-2.791,2.622,4.515,4.515,0,0,1-2.448-.757l.028-4.2c-2.592.437-3.929,2.391-3.929,5.859s1.765,5.8,4.469,5.8c1.254,0,2.421-.437,4.814-1.633v2.8a14.446,14.446,0,0,1-6.92,1.779A7.423,7.423,0,0,1,47.327,14.108Zm-15.6,1.982V6.355L25.943,16.09H22.07V3.528l-2.992-.321V1.778L24.547.408h2.079V10.64L32.662.408h3.645V12.272l3.816-5.219V.933A2.936,2.936,0,0,1,42.315,0a2.632,2.632,0,0,1,2.677,2.652c0,1.459-.824,2.683-3.16,5.685L35.966,16.09Z" fill="#fdfcfe"/>
</svg>
